<?xml version="1.0" standalone="no"?>
<!DOCTYPE svg PUBLIC "-//W3C//DTD SVG 1.1//EN" "http://www.w3.org/Graphics/SVG/1.1/DTD/svg11.dtd" >
<svg xmlns="http://www.w3.org/2000/svg" xmlns:xlink="http://www.w3.org/1999/xlink" version="1.1">
<metadata></metadata>
<defs>
<font id="gotham_prolight" horiz-adv-x="1044" >
<font-face units-per-em="2048" ascent="1638" descent="-410" />
<missing-glyph horiz-adv-x="626" />
<glyph horiz-adv-x="0" />
<glyph horiz-adv-x="682" />
<glyph unicode=" "  horiz-adv-x="626" />
<glyph unicode="&#x09;" horiz-adv-x="626" />
<glyph unicode="&#xa0;" horiz-adv-x="626" />
<glyph unicode="!" horiz-adv-x="526" d="M194 0v177h139v-177h-139zM234 382l-31 934v147h120v-147l-30 -934h-59z" />
<glyph unicode="&#x22;" horiz-adv-x="855" d="M142 931l73 532h136v-12l-148 -520h-61zM518 931l74 532h135v-12l-149 -520h-60z" />
<glyph unicode="#" horiz-adv-x="1461" d="M289 0l66 391h-253v98h270l86 493h-272v98h288l65 383h101l-66 -383h433l65 383h100l-65 -383h251v-98h-268l-85 -493h269v-98h-286l-67 -391h-100l66 391h-432l-66 -391h-100zM472 489h433l85 493h-432z" />
<glyph unicode="$" horiz-adv-x="1319" d="M620 -205v207q-140 12 -260.5 67t-234.5 156l69 82q67 -63 131.5 -105.5t140 -69.5t158.5 -34v594q-235 52 -338.5 144t-103.5 250q0 104 56 189t156.5 135t225.5 53v120h101v-124q116 -9 211 -51t192 -121l-69 -81q-154 136 -339 158v-587q159 -34 258.5 -86t146.5 -127 t47 -179q0 -164 -124.5 -270.5t-322.5 -114.5v-205h-101zM716 94q155 4 250 84t95 202q0 56 -15.5 97t-53.5 77.5t-106 64.5t-170 51v-576zM624 798v570q-99 -2 -176 -39.5t-118 -99.5t-41 -139q0 -42 8.5 -75.5t31 -66t60.5 -58t96.5 -49t138.5 -43.5z" />
<glyph unicode="%" horiz-adv-x="1720" d="M267 0l1074 1463h113l-1074 -1463h-113zM1282 -16q-93 0 -167 52t-113 136.5t-39 184.5q0 99 40 184t115 137.5t169 52.5q93 0 167 -52.5t113 -137.5t39 -184t-39.5 -184t-115 -137t-169.5 -52zM1287 73q92 0 151 81t59 203q0 121 -63 203t-152 82q-91 0 -150.5 -82.5 t-59.5 -202.5q0 -122 63 -203t152 -81zM435 731q-94 0 -167.5 52t-113 137t-39.5 185q0 98 40 183.5t115 138t169 52.5q70 0 130.5 -31t101 -82.5t64 -119.5t23.5 -141q0 -99 -40 -184t-115 -137.5t-168 -52.5zM439 821q92 0 151.5 81t59.5 203q0 121 -63 202.5t-152 81.5 q-92 0 -152 -82.5t-60 -201.5q0 -122 63 -203t153 -81z" />
<glyph unicode="&#x26;" horiz-adv-x="1453" d="M1299 -30l-252 262q-216 -252 -495 -252q-128 0 -230.5 51t-161 144.5t-58.5 213.5q0 144 98 252.5t280 175.5q-87 97 -125 172.5t-38 166.5q0 141 104 236t262 95q142 0 239 -93t97 -228q0 -254 -359 -379l384 -394q99 138 190 355l99 -40q-111 -247 -217 -389l269 -277 zM554 73q227 0 423 230l-431 447q-168 -58 -251.5 -152.5t-83.5 -208.5q0 -135 97 -225.5t246 -90.5zM596 855q315 101 315 311q0 97 -66.5 163t-165.5 66q-110 0 -181.5 -68.5t-71.5 -170.5q0 -69 36.5 -133.5t133.5 -167.5z" />
<glyph unicode="'" horiz-adv-x="480" d="M142 931l73 532h136v-12l-148 -520h-61z" />
<glyph unicode="(" horiz-adv-x="897" d="M727 -295q-279 159 -429 387t-150 508t150 507t429 386l44 -68q-514 -316 -514 -825.5t514 -824.5z" />
<glyph unicode=")" horiz-adv-x="897" d="M171 -295l-43 70q514 315 514 824.5t-514 825.5l43 68q280 -159 429.5 -386t149.5 -507t-149.5 -508t-429.5 -387z" />
<glyph unicode="*" horiz-adv-x="897" d="M405 848l19 266l-221 -151l-46 77l246 118l-246 116l46 78l221 -150l-19 265h88l-19 -265l222 150l46 -78l-247 -116l247 -118l-46 -77l-222 151l19 -266h-88z" />
<glyph unicode="+" horiz-adv-x="1336" d="M616 236v449h-453v100h453v449h105v-449h453v-100h-453v-449h-105z" />
<glyph unicode="," horiz-adv-x="480" d="M136 -223l-25 52q63 31 89.5 66t26.5 87v18h-56v177h138v-154q0 -97 -39.5 -154t-133.5 -92z" />
<glyph unicode="-" horiz-adv-x="851" d="M146 562v117h560v-117h-560z" />
<glyph unicode="." horiz-adv-x="480" d="M171 0v177h138v-177h-138z" />
<glyph unicode="/" d="M-38 -267l987 1934h102l-987 -1934h-102z" />
<glyph unicode="0" horiz-adv-x="1483" d="M740 -26q-110 0 -206 39.5t-168 110t-124.5 165t-79 208t-26.5 234.5q0 86 14 169t41.5 157.5t66 140.5t90.5 119t112 91t132.5 58.5t151.5 20.5q109 0 205 -39.5t168 -109.5t124.5 -164.5t79 -207.5t26.5 -235q0 -100 -19 -195.5t-55 -179.5t-90 -154t-120 -120.5 t-149 -79t-174 -28.5zM744 73q88 0 166.5 35.5t137 98t101 145t64 180t21.5 199.5t-22 199t-65 180t-102 145.5t-138 98t-167.5 35.5t-167 -35t-137 -97t-101 -145t-64 -180t-21.5 -201q0 -84 15.5 -166t45 -155t73.5 -134.5t97.5 -106.5t121.5 -70.5t142 -25.5z" />
<glyph unicode="1" horiz-adv-x="699" d="M374 0v1360l-282 -96l-30 85l335 124h83v-1473h-106z" />
<glyph unicode="2" horiz-adv-x="1232" d="M100 0v82l546 492q181 165 252 274.5t71 225.5q0 69 -27 128.5t-72 99.5t-105 62.5t-125 22.5q-134 0 -233.5 -66.5t-195.5 -204.5l-81 54q51 78 99.5 131.5t110.5 96.5t138.5 64t171.5 21q122 0 222 -52.5t156 -145.5t56 -207q0 -75 -19.5 -139.5t-67.5 -133.5 t-111.5 -135t-166.5 -160l-448 -406h828v-104h-999z" />
<glyph unicode="3" horiz-adv-x="1273" d="M650 -26q-171 0 -306.5 70.5t-230.5 193.5l84 69q185 -234 455 -234q100 0 182 41t130.5 116.5t48.5 170.5q0 75 -34 135.5t-95 100.5t-144 61t-182 21h-80l-27 60l504 581h-767v103h915v-78l-495 -566q64 -4 124 -16.5t119 -34t108 -55.5t87 -78t59 -104t21 -130 q0 -93 -39 -174t-104.5 -135.5t-152 -86t-180.5 -31.5z" />
<glyph unicode="4" horiz-adv-x="1386" d="M929 0v357h-791l-38 82l836 1034h98v-1022h238v-94h-238v-357h-105zM232 451h697v865z" />
<glyph unicode="5" horiz-adv-x="1263" d="M630 -26q-141 0 -274 66t-237 171l78 78q102 -102 214 -159t224 -57q114 0 204 49.5t139.5 134t49.5 188.5q0 152 -112.5 249.5t-289.5 97.5q-93 0 -171 -24.5t-158 -67.5l-84 54l42 709h821v-105h-725l-36 -547q79 38 154.5 58t170.5 20q140 0 254 -55t180 -157t66 -232 q0 -136 -65.5 -243.5t-182 -167.5t-262.5 -60z" />
<glyph unicode="6" horiz-adv-x="1340" d="M692 -26q-110 0 -207.5 40t-165.5 107q-47 48 -80 98.5t-57.5 118.5t-36 156t-11.5 202q0 131 26.5 251t78.5 218t123.5 170.5t165.5 112t201 39.5q81 0 156 -21.5t136.5 -57t129.5 -90.5l-69 -84q-58 52 -113.5 85.5t-117.5 51.5t-130 18q-142 0 -251 -91t-168 -255 t-59 -377v-36q160 273 457 273q99 0 190.5 -33.5t161 -91t111 -142t41.5 -181.5q0 -136 -67.5 -246t-185 -172.5t-259.5 -62.5zM700 73q115 0 205 51.5t137.5 138t47.5 192.5q0 151 -112 251.5t-284 100.5q-88 0 -165 -31.5t-129.5 -83t-82.5 -117.5t-30 -134 q0 -103 53.5 -187.5t148.5 -132.5t211 -48z" />
<glyph unicode="7" horiz-adv-x="1226" d="M325 0l665 1358h-848v105h970v-80l-667 -1383h-120z" />
<glyph unicode="8" horiz-adv-x="1315" d="M658 -20q-114 0 -214 30t-172.5 84t-114.5 132t-42 169q0 83 43 155.5t115 123.5t166 82q-45 18 -84 41t-74.5 54.5t-60.5 68t-40 83t-15 98.5q0 82 41.5 154.5t110 122t157.5 77.5t184 28q75 0 148 -17.5t135 -52t109 -80.5t74 -107.5t27 -129.5q0 -62 -22 -117 t-61.5 -96.5t-86.5 -72.5t-104 -54q145 -48 235 -143.5t90 -221.5q0 -119 -72 -213.5t-196 -146t-276 -51.5zM658 78q79 0 148 16t120 45t88 68t55.5 86t18.5 98q0 89 -57.5 161t-156 112t-216.5 40t-216.5 -40t-156.5 -113.5t-58 -163.5q0 -63 30 -118.5t84 -98 t136.5 -67.5t180.5 -25zM658 796q104 0 190 37t138 107.5t52 160.5q0 81 -50.5 146t-137 101.5t-192.5 36.5t-193 -36.5t-137.5 -102.5t-50.5 -150q0 -65 30.5 -122t82.5 -95.5t121.5 -60.5t146.5 -22z" />
<glyph unicode="9" horiz-adv-x="1340" d="M612 -26q-126 0 -232 48.5t-209 134.5l70 84q62 -57 121.5 -93.5t122.5 -55.5t129 -19q141 0 251.5 89.5t172 250t61.5 364.5v50q-34 -59 -75.5 -107.5t-97 -89t-127.5 -62.5t-155 -22q-87 0 -166 22t-140.5 63t-106.5 96.5t-69 124.5t-24 145q0 100 37.5 190t104 156 t163.5 105t209 39q113 0 208 -39.5t164 -108.5q90 -90 137 -225.5t47 -348.5q0 -170 -45.5 -317.5t-124.5 -251t-189.5 -163t-236.5 -59.5zM648 642q90 0 168 32t129 85t80.5 120t29.5 138q0 77 -31 145.5t-85.5 118.5t-132 79t-166.5 29q-88 0 -162 -32t-123 -86.5 t-76.5 -125.5t-27.5 -148q0 -155 111.5 -255t285.5 -100z" />
<glyph unicode=":" horiz-adv-x="500" d="M182 0v177h137v-177h-137zM182 887v178h137v-178h-137z" />
<glyph unicode=";" horiz-adv-x="500" d="M146 -223l-25 52q63 31 90 66t27 87v18h-56v177h137v-154q0 -97 -39.5 -154t-133.5 -92zM182 887v178h137v-178h-137z" />
<glyph unicode="&#x3c;" horiz-adv-x="1336" d="M1122 190l-969 504v83l969 503v-112l-843 -431l843 -434v-113z" />
<glyph unicode="=" horiz-adv-x="1336" d="M194 447v107h948v-107h-948zM194 917v107h948v-107h-948z" />
<glyph unicode="&#x3e;" horiz-adv-x="1336" d="M215 190v113l842 430l-842 435v112l969 -503v-83z" />
<glyph unicode="?" horiz-adv-x="1114" d="M443 0v177h137v-177h-137zM478 382l-27 339l11 10q206 5 320.5 95t114.5 244q0 51 -15.5 98.5t-45.5 86.5t-71.5 68.5t-97 45.5t-117.5 16q-230 0 -404 -215l-75 62q64 79 129.5 131.5t156 85t197.5 32.5q101 0 186.5 -32.5t143.5 -88t90.5 -130.5t32.5 -160 q0 -94 -35 -171t-96 -128.5t-140 -83.5t-172 -43l-18 -262h-68z" />
<glyph unicode="@" horiz-adv-x="2047" d="M1042 -339q-131 0 -254 33t-225 92.5t-186.5 143.5t-143 184t-90.5 217.5t-32 240.5t32.5 241t91 218.5t142.5 185t184 144.5t219.5 93t245.5 33t245 -30.5t218.5 -85.5t183 -132.5t141.5 -168.5t90 -196t32 -214q0 -103 -22.5 -189t-60 -144t-87 -98t-102.5 -58 t-107 -18q-109 0 -183.5 51.5t-101.5 142.5q-35 -43 -69.5 -75.5t-78.5 -60.5t-96.5 -43t-112.5 -15q-101 0 -185 46t-134 131.5t-50 193.5q0 87 28 168.5t76 144.5t110 110t132.5 72t139.5 25q61 0 113 -15.5t89 -43t63.5 -58.5t45.5 -68l30 156l100 -12l-78 -441 q-18 -110 -18 -151q0 -89 49 -136.5t139 -47.5q56 0 108.5 26t96 76.5t70 136t26.5 194.5q0 95 -29.5 189t-81.5 178t-129 156.5t-168.5 125t-202.5 82.5t-229 30q-119 0 -230 -30.5t-203.5 -85.5t-169.5 -133.5t-130 -172t-82 -203t-29 -224.5q0 -99 21 -193.5t61.5 -178 t97 -156.5t130.5 -131t159 -99t185 -63t206 -22q153 0 275.5 34.5t247.5 106.5l31 -52q-258 -157 -554 -157zM931 251q96 0 184 57.5t140.5 151t52.5 194.5q0 124 -78.5 207.5t-197.5 83.5q-70 0 -138.5 -32t-121.5 -86.5t-85.5 -132t-32.5 -162.5q0 -87 35.5 -151t98 -97 t143.5 -33z" />
<glyph unicode="A" horiz-adv-x="1649" d="M92 0l681 1473h104l682 -1473h-120l-185 409h-863l-186 -409h-113zM437 508h771l-385 846z" />
<glyph unicode="B" horiz-adv-x="1507" d="M217 0v1463h604q215 0 344.5 -99.5t129.5 -264.5q0 -49 -10 -92t-28 -76.5t-41 -61.5t-52 -50t-57.5 -38.5t-59.5 -28.5q69 -19 125.5 -46.5t104 -69t74 -102t26.5 -135.5q0 -121 -65 -211.5t-184 -139t-275 -48.5h-636zM325 100h532q124 0 216.5 36.5t142.5 105 t50 161.5q0 54 -18.5 98.5t-55 79t-90 58.5t-124.5 36t-157 12h-496v-587zM325 787h484q169 0 272 80t103 225q0 123 -96 196.5t-269 73.5h-494v-575z" />
<glyph unicode="C" horiz-adv-x="1541" d="M879 -26q-103 0 -198.5 27t-175.5 75.5t-145.5 117.5t-111 152.5t-70.5 182t-25 202.5q0 154 55.5 293t151 241t232 162t291.5 60q95 0 175.5 -17t149 -52t122 -74t115.5 -97l-70 -73q-107 103 -223.5 159t-270.5 56q-129 0 -243.5 -50.5t-196 -138t-129 -209.5 t-47.5 -260q0 -136 48 -258t130 -209.5t197 -139t243 -51.5q152 0 269.5 56t234.5 172l74 -71q-49 -49 -95.5 -86t-101.5 -70t-113 -54t-127 -33.5t-145 -12.5z" />
<glyph unicode="D" horiz-adv-x="1633" d="M217 0v1463h487q169 0 314.5 -56t247 -153.5t158.5 -232.5t57 -290q0 -152 -57.5 -287t-158 -233t-246.5 -154.5t-315 -56.5h-487zM325 100h379q149 0 274.5 49t210.5 134t132 200.5t47 247.5q0 130 -47 245t-132 200.5t-210.5 135.5t-274.5 50h-379v-1262z" />
<glyph unicode="E" horiz-adv-x="1399" d="M217 0v1463h1041v-101h-933v-575h839v-100h-839v-587h943v-100h-1051z" />
<glyph unicode="F" horiz-adv-x="1369" d="M217 0v1463h1030v-101h-922v-599h828v-101h-828v-662h-108z" />
<glyph unicode="G" horiz-adv-x="1637" d="M887 -26q-135 0 -253 39t-205.5 108.5t-150 163.5t-94 208t-31.5 238q0 118 32.5 230t96 207t150 166.5t201 112t242.5 40.5q170 0 294 -47.5t241 -144.5l-71 -81q-97 84 -206.5 129.5t-263.5 45.5q-130 0 -243.5 -52.5t-192 -142t-123.5 -210t-45 -253.5 q0 -141 43.5 -262t123 -209.5t198 -138.5t261.5 -50q133 0 257 47.5t210 119.5v420h-489v100h594v-564q-108 -96 -258 -158t-318 -62z" />
<glyph unicode="H" horiz-adv-x="1587" d="M217 0v1463h108v-678h937v678h108v-1463h-108v685h-937v-685h-108z" />
<glyph unicode="I" horiz-adv-x="572" d="M232 0v1463h109v-1463h-109z" />
<glyph unicode="J" horiz-adv-x="1146" d="M520 -20q-290 0 -442 273l89 56q71 -120 153 -175.5t206 -55.5q140 0 229 102.5t89 287.5v995h109v-987q0 -123 -35.5 -220t-98.5 -160q-116 -116 -299 -116z" />
<glyph unicode="K" horiz-adv-x="1493" d="M217 0v1463h108v-961l933 961h148l-639 -646l666 -817h-142l-601 740l-365 -368v-372h-108z" />
<glyph unicode="L" horiz-adv-x="1292" d="M217 0v1463h108v-1363h859v-100h-967z" />
<glyph unicode="M" horiz-adv-x="1812" d="M217 0v1463h102l588 -865l586 865h103v-1463h-109v1270l-578 -842h-8l-580 842v-1270h-104z" />
<glyph unicode="N" horiz-adv-x="1649" d="M217 0v1463h102l1010 -1273v1273h104v-1463h-81l-1031 1299v-1299h-104z" />
<glyph unicode="O" horiz-adv-x="1774" d="M885 -26q-81 0 -158 16.5t-143 46t-125 71.5t-106 94t-85 113t-63 128t-38.5 140t-13.5 148q0 119 33.5 231.5t98.5 207t153.5 166t205 111.5t246 40t245.5 -39.5t204 -110.5t152.5 -165.5t98 -207t33.5 -233.5q0 -119 -34 -231.5t-99 -207t-153.5 -166t-205 -112 t-246.5 -40.5zM889.5 73q132.5 0 249 52t197.5 140.5t128 209.5t47 256q0 134 -47.5 255t-129.5 210t-199 141t-249.5 52t-248.5 -51.5t-197.5 -140t-128 -209.5t-46.5 -257q0 -134 47.5 -255t129 -209.5t198.5 -141t249.5 -52.5z" />
<glyph unicode="P" horiz-adv-x="1395" d="M217 0v1463h531q120 0 220 -30.5t172 -87.5t111.5 -142.5t39.5 -191.5q0 -90 -30 -166t-82.5 -130.5t-124.5 -93t-156.5 -57t-176.5 -18.5h-396v-546h-108zM325 646h402q205 0 330 99t125 264q0 113 -56 193.5t-155 120t-231 39.5h-415v-716z" />
<glyph unicode="Q" horiz-adv-x="1774" d="M1563 -44l-205 186q-199 -168 -473 -168q-81 0 -158 16.5t-143 46t-125 71.5t-106 94t-85 113t-63 128t-38.5 140t-13.5 148q0 119 33.5 231.5t98.5 207t153.5 166t205 111.5t246 40t245.5 -39.5t204 -110.5t152.5 -165.5t98 -207t33.5 -233.5q0 -145 -49.5 -279 t-142.5 -237l209 -175zM889 73q225 0 389 138l-284 242l78 86l280 -254q76 89 117.5 203.5t41.5 242.5q0 134 -47.5 255t-129.5 210t-199 141t-249.5 52t-248.5 -51.5t-197.5 -140t-128 -209.5t-46.5 -257q0 -134 47.5 -255t129 -209.5t198.5 -141t249 -52.5z" />
<glyph unicode="R" horiz-adv-x="1509" d="M217 0v1463h614q88 0 167 -18t140 -50.5t105 -76.5q53 -53 82 -124t29 -152q0 -89 -32 -163t-90 -125.5t-135.5 -84t-171.5 -45.5l483 -624h-138l-466 606h-479v-606h-108zM325 704h494q92 0 170 23t135 65.5t89 106.5t32 143q0 149 -111 234.5t-309 85.5h-500v-658z" />
<glyph unicode="S" horiz-adv-x="1336" d="M712 -20q-173 0 -314 57t-275 176l71 82q124 -114 245.5 -165.5t279.5 -51.5q164 0 266.5 82.5t102.5 211.5q0 61 -18 105t-63.5 83t-126.5 68.5t-205 54.5q-263 54 -378 150.5t-115 265.5q0 107 60 195t168 138.5t242 50.5q105 0 192 -20t159.5 -58t149.5 -99l-69 -86 q-101 87 -206.5 126t-229.5 39q-159 0 -258 -80t-99 -200q0 -41 7.5 -73t25.5 -63t49.5 -55.5t78.5 -47.5t112.5 -43t151.5 -38q254 -52 367.5 -148t113.5 -259q0 -116 -62 -207t-173 -141t-250 -50z" />
<glyph unicode="T" horiz-adv-x="1353" d="M622 0v1362h-509v101h1128v-101h-510v-1362h-109z" />
<glyph unicode="U" horiz-adv-x="1587" d="M794 -23q-132 0 -242 41.5t-190 120t-124 198.5t-44 271v855h109v-845q0 -257 131 -400t364 -143q227 0 357 136.5t130 396.5v855h108v-843q0 -155 -43.5 -277.5t-123 -202.5t-189.5 -121.5t-243 -41.5z" />
<glyph unicode="V" horiz-adv-x="1566" d="M735 -10l-643 1473h121l572 -1346l575 1346h115l-644 -1473h-96z" />
<glyph unicode="W" horiz-adv-x="2301" d="M635 -10l-531 1473h121l460 -1302l429 1306h83l428 -1306l460 1302h112l-530 -1473h-88l-428 1270l-428 -1270h-88z" />
<glyph unicode="X" horiz-adv-x="1507" d="M106 0l584 746l-562 717h129l499 -644l498 644h127l-560 -715l580 -748h-129l-520 675l-518 -675h-128z" />
<glyph unicode="Y" horiz-adv-x="1495" d="M694 0v578l-627 885h136l547 -786l549 786h130l-627 -883v-580h-108z" />
<glyph unicode="Z" horiz-adv-x="1437" d="M142 0v60l1000 1304h-965v99h1120v-62l-1000 -1303h1000v-98h-1155z" />
<glyph unicode="[" horiz-adv-x="897" d="M205 -271v1734h570v-80h-474v-1575h474v-79h-570z" />
<glyph unicode="\" d="M980 -267l-986 1934h102l986 -1934h-102z" />
<glyph unicode="]" horiz-adv-x="897" d="M123 -271v79h475v1575h-475v80h571v-1734h-571z" />
<glyph unicode="^" d="M146 1030l330 439h92l331 -439h-112l-267 349l-267 -349h-107z" />
<glyph unicode="_" horiz-adv-x="1252" d="M-4 -335v92h1262v-92h-1262z" />
<glyph unicode="`" d="M552 1243l-224 216l127 62l185 -278h-88z" />
<glyph unicode="a" horiz-adv-x="1198" d="M518 -26q-60 0 -119 13.5t-112 41.5t-93 67.5t-64 95.5t-24 121q0 109 59.5 188t164 119t242.5 40q183 0 353 -46v46q0 159 -92 242.5t-259 83.5q-165 0 -333 -85l-38 89q98 45 186.5 68.5t190.5 23.5q220 0 337 -117q109 -109 109 -301v-664h-101v177q-23 -32 -51 -60 t-65.5 -55t-80 -46t-97 -30.5t-113.5 -11.5zM524 71q81 0 154.5 24.5t128.5 67t87.5 104t32.5 132.5v121q-183 48 -361 48q-167 0 -259 -68t-92 -185q0 -75 43.5 -131.5t113 -84.5t152.5 -28z" />
<glyph unicode="b" horiz-adv-x="1378" d="M735 -26q-271 0 -438 256v-230h-103v1525h103v-698q173 263 438 263q78 0 153 -23.5t141 -71.5t116 -114t79.5 -156t29.5 -193q0 -72 -15.5 -139.5t-43 -122.5t-65 -102.5t-83 -82.5t-96.5 -60t-106 -38t-110 -13zM725 73q87 0 163 31.5t132.5 89t89 145t32.5 193.5 q0 103 -33.5 190t-91 145.5t-133 91.5t-159.5 33q-83 0 -161 -34t-139 -93t-97.5 -146.5t-36.5 -188.5q0 -66 16.5 -128t46.5 -111.5t71 -90.5t89 -69t102 -43t109 -15z" />
<glyph unicode="c" horiz-adv-x="1192" d="M664 -26q-113 0 -214 44.5t-173 119.5t-114 178t-42 216t42.5 216t114.5 178t173 119.5t213 44.5q139 0 241.5 -53.5t182.5 -145.5l-71 -72q-39 40 -73 68t-78 54.5t-95.5 39.5t-108.5 13q-87 0 -166.5 -36.5t-137.5 -98t-92 -147.5t-34 -180q0 -63 15.5 -123 t43.5 -110.5t68 -93t88.5 -72t105.5 -46t117 -16.5q191 0 354 182l75 -67q-89 -102 -192.5 -157t-242.5 -55z" />
<glyph unicode="d" horiz-adv-x="1378" d="M644 -26q-55 0 -110 12.5t-106 37.5t-96.5 59.5t-83 82t-65 103t-43 123t-15.5 140.5q0 102 29.5 191.5t79.5 155.5t116 114.5t141 72.5t153 24q271 0 438 -255v690h102v-1525h-102v238q-173 -264 -438 -264zM654 73q66 0 130 21.5t118.5 62.5t96.5 96t65.5 128t23.5 153 q0 100 -36.5 187t-97.5 145.5t-139 92t-161 33.5q-87 0 -163 -31t-133 -89t-89.5 -145.5t-32.5 -194.5q0 -102 34 -189t91 -145.5t133 -91.5t160 -33z" />
<glyph unicode="e" horiz-adv-x="1219" d="M644 -26q-105 0 -200 41t-166.5 113t-114 177.5t-42.5 228.5q0 115 39 217.5t105.5 177t160.5 118t200 43.5q110 0 202.5 -43t155 -117.5t97.5 -177t35 -220.5q0 -25 -2 -41h-884q6 -97 43 -177t94 -132.5t129.5 -81.5t151.5 -29t148.5 23t119.5 58t97 86l71 -63 q-89 -97 -192.5 -149t-247.5 -52zM230 582h775q-6 83 -32.5 156t-72.5 131.5t-117.5 93t-160.5 34.5q-104 0 -190.5 -54.5t-139.5 -149t-62 -211.5z" />
<glyph unicode="f" horiz-adv-x="755" d="M257 0v971h-155v94h155v105q0 184 94 277q84 84 223 84q87 0 159 -24v-97q-90 27 -159 27q-73 0 -120.5 -29.5t-71 -89t-23.5 -150.5v-103h372v-94h-372v-971h-102z" />
<glyph unicode="g" horiz-adv-x="1378" d="M662 -339q-268 0 -489 164l61 83q196 -151 430 -151q124 0 217 46t147 140.5t54 227.5v154q-171 -245 -444 -245q-78 0 -152.5 22.5t-139.5 66.5t-114.5 104t-78 140.5t-28.5 170.5t28.5 170.5t78 141t114.5 105t140 67t152 22.5t146 -19t123.5 -53t97 -75t77.5 -90v212 h102v-900q0 -226 -135 -362q-46 -46 -106.5 -77.5t-131.5 -48t-149 -16.5zM648 177q83 0 162 30t141 82t99.5 130t37.5 167q0 61 -17 116.5t-47.5 99.5t-72.5 80t-90.5 60t-103 37t-109.5 13q-84 0 -159 -28.5t-131 -80t-89 -129t-33 -170.5q0 -70 21.5 -134t60 -113 t90 -85.5t113 -55.5t127.5 -19z" />
<glyph unicode="h" horiz-adv-x="1280" d="M194 0v1525h103v-658q127 223 384 223q132 0 229.5 -56.5t147 -155t49.5 -226.5v-652h-102v633q0 167 -89.5 265.5t-249.5 98.5q-77 0 -145.5 -29t-117.5 -78.5t-77.5 -120.5t-28.5 -153v-616h-103z" />
<glyph unicode="i" horiz-adv-x="519" d="M209 0v1065h102v-1065h-102zM197 1343v140h126v-140h-126z" />
<glyph unicode="j" horiz-adv-x="519" d="M84 -341q-44 0 -86 8v90q38 -6 84 -6q58 0 92.5 38t34.5 111v1165h102v-1159q0 -122 -60.5 -184.5t-166.5 -62.5zM197 1343v140h126v-140h-126z" />
<glyph unicode="k" horiz-adv-x="1168" d="M194 0v1525h103v-1143l660 683h135l-466 -471l481 -594h-130l-421 520l-259 -261v-259h-103z" />
<glyph unicode="l" horiz-adv-x="519" d="M209 0v1525h102v-1525h-102z" />
<glyph unicode="m" horiz-adv-x="1985" d="M194 0v1065h103v-190q19 30 37.5 54.5t43 50.5t52 45t61 34t74.5 23t87 8q130 0 220.5 -63.5t138.5 -165.5q133 229 384 229q189 0 299 -121t110 -323v-646h-102v633q0 172 -83.5 268t-231.5 96q-54 0 -104 -16.5t-92 -48.5t-73.5 -76.5t-49 -105t-17.5 -130.5v-620h-102 v640q0 165 -84.5 261t-226.5 96q-71 0 -134 -30t-108.5 -81t-72 -122t-26.5 -150v-614h-103z" />
<glyph unicode="n" horiz-adv-x="1280" d="M194 0v1065h103v-198q127 223 384 223q132 0 229.5 -56.5t147 -155t49.5 -226.5v-652h-102v633q0 167 -89.5 265.5t-249.5 98.5q-77 0 -145.5 -29t-117.5 -78.5t-77.5 -120.5t-28.5 -153v-616h-103z" />
<glyph unicode="o" horiz-adv-x="1336" d="M666 -26q-116 0 -218 45t-173 120.5t-112.5 178t-41.5 214.5q0 111 42 213.5t113.5 178.5t174.5 121t219 45t218 -44.5t173.5 -120t113 -178t41.5 -215.5q0 -110 -42 -212.5t-114 -178.5t-175 -121.5t-219 -45.5zM670 71q87 0 167 36.5t139 98.5t94 147.5t35 178.5 q0 95 -35 181t-94 147.5t-140 97.5t-170 36q-71 0 -137.5 -23t-119.5 -66t-93.5 -99.5t-62 -127t-21.5 -146.5q0 -94 34 -179.5t92 -147t139.5 -98t172.5 -36.5z" />
<glyph unicode="p" horiz-adv-x="1378" d="M194 -335v1400h103v-238q173 263 438 263q78 0 153 -23.5t141 -71.5t116 -114t79.5 -156t29.5 -193q0 -72 -15.5 -139.5t-43 -122.5t-65 -102.5t-83 -82.5t-96.5 -60t-106 -38t-110 -13q-271 0 -438 256v-565h-103zM725 73q87 0 163 31.5t132.5 89t89 145t32.5 193.5 q0 103 -33.5 190t-91 145.5t-133 91.5t-159.5 33q-83 0 -161 -34t-139 -93t-97.5 -146.5t-36.5 -188.5q0 -66 16.5 -128t46.5 -111.5t71 -90.5t89 -69t102 -43t109 -15z" />
<glyph unicode="q" horiz-adv-x="1378" d="M1082 -335v573q-173 -264 -438 -264q-55 0 -110 12.5t-106 37.5t-96.5 59.5t-83 82t-65 103t-43 123t-15.5 140.5q0 102 29.5 191.5t79.5 155.5t116 114.5t141 72.5t153 24q271 0 438 -255v230h102v-1400h-102zM654 73q66 0 130 21.5t118.5 62.5t96.5 96t65.5 128 t23.5 153q0 100 -36.5 187t-97.5 145.5t-139 92t-161 33.5q-87 0 -163 -31t-133 -89t-89.5 -145.5t-32.5 -194.5q0 -102 34 -189t91 -145.5t133 -91.5t160 -33z" />
<glyph unicode="r" horiz-adv-x="835" d="M194 0v1065h103v-302q65 147 191.5 236t280.5 83v-113h-11q-94 0 -176.5 -35t-146.5 -100.5t-101 -168t-37 -228.5v-437h-103z" />
<glyph unicode="s" horiz-adv-x="1037" d="M539 -20q-115 0 -233 42t-204 112l61 81q183 -140 383 -140q72 0 130 25t92 72t34 110q0 30 -10 55.5t-31 46t-44 36t-59 29.5t-65 23.5t-73 22.5q-2 0 -6 1q-49 15 -74.5 22.5t-70.5 24t-69.5 30.5t-56 37t-48 48t-28.5 59.5t-12 74.5q0 128 98 211t253 83 q95 0 196 -31.5t181 -85.5l-54 -86q-163 107 -327 107q-109 0 -176 -53t-67 -137q0 -25 9 -47t22 -38.5t38 -32.5t46 -26.5t57 -23t59.5 -19.5t65.5 -19q43 -12 74 -22t70 -25.5t66.5 -31.5t55.5 -39.5t45.5 -49.5t28.5 -60.5t11 -74.5q0 -56 -18.5 -105.5t-52.5 -86.5 t-79.5 -64t-101 -41t-116.5 -14z" />
<glyph unicode="t" horiz-adv-x="835" d="M550 -18q-64 0 -117 17t-94.5 52t-64.5 91.5t-23 130.5v698h-155v94h155v341h102v-341h374v-94h-374v-686q0 -207 213 -207q75 0 157 37v-97q-78 -36 -173 -36z" />
<glyph unicode="u" horiz-adv-x="1280" d="M600 -26q-132 0 -229.5 57t-147.5 156t-50 227v651h102v-633q0 -166 90 -264.5t249 -98.5q78 0 146 28.5t117.5 78t78 120.5t28.5 153v616h102v-1065h-102v199q-127 -225 -384 -225z" />
<glyph unicode="v" horiz-adv-x="1214" d="M564 -8l-478 1073h119l403 -950l407 950h115l-478 -1073h-88z" />
<glyph unicode="w" horiz-adv-x="1798" d="M493 -8l-391 1073h115l322 -935l322 940h81l322 -940l321 935h111l-390 -1073h-88l-317 913l-321 -913h-87z" />
<glyph unicode="x" horiz-adv-x="1190" d="M94 0l436 543l-419 522h127l360 -451l359 451h123l-420 -519l436 -546h-127l-375 474l-377 -474h-123z" />
<glyph unicode="y" horiz-adv-x="1228" d="M323 -341q-59 0 -107 11t-103 35l35 90q43 -21 84 -30.5t98 -9.5q85 0 145 56.5t119 194.5l-512 1059h119l443 -952l384 952h112l-461 -1103q-68 -163 -153 -233t-203 -70z" />
<glyph unicode="z" horiz-adv-x="1156" d="M121 0v58l768 915h-739v92h892v-58l-769 -915h769v-92h-921z" />
<glyph unicode="{" horiz-adv-x="1002" d="M869 -295q-93 18 -162.5 41t-118 53t-80 63.5t-49 77t-24.5 88t-7 102.5v165q0 64 -11.5 110.5t-39.5 82.5t-77.5 54t-122.5 18h-54v80h54q59 0 102.5 12t71.5 33.5t45.5 55.5t24.5 73.5t7 90.5v165q0 58 7 102t24.5 88t49 77t80 63t118 53t162.5 40l14 -66 q-60 -16 -106.5 -30.5t-83 -32t-62 -34.5t-44 -40t-29.5 -45t-17.5 -53t-8.5 -61.5t-2 -73.5v-156q0 -55 -10 -99t-28 -76t-45.5 -56.5t-60 -41t-73.5 -28.5q56 -18 94 -40.5t67 -57.5t42.5 -85t13.5 -118v-157q0 -58 4 -95.5t17 -75.5t36 -63t63 -50t96 -45t137 -40z" />
<glyph unicode="|" horiz-adv-x="596" d="M253 -267v1934h92v-1934h-92z" />
<glyph unicode="}" horiz-adv-x="1002" d="M134 -295l-15 68q61 15 107 30t83 32.5t62.5 34t44 39.5t29.5 44.5t17 53t8 62t2 73.5v157q0 68 15 119.5t45 86t67.5 57t90.5 38.5q-56 18 -94 40.5t-67 57t-43 84.5t-14 119v156q0 43 -2 73.5t-8 61.5t-17 53t-29.5 45t-44 40t-62 34.5t-83 32t-107.5 30.5l15 66 q79 -15 142 -34.5t109 -42t79.5 -51.5t54.5 -59.5t33.5 -69.5t17 -78t4.5 -88v-165q0 -65 12 -111.5t39.5 -82.5t77.5 -53.5t122 -17.5h54v-80h-54q-72 0 -122 -18t-77.5 -54t-39.5 -82.5t-12 -110.5v-165q0 -58 -6.5 -102.5t-24 -88t-49 -77t-80 -63.5t-118.5 -53t-162 -41 z" />
<glyph unicode="~" horiz-adv-x="960" d="M243 506l-72 18q29 109 70 152t106 43q33 0 85 -21.5t102.5 -43t79.5 -21.5q37 0 59 22t46 82l70 -18q-28 -109 -69 -152t-106 -43q-33 0 -85 21.5t-102.5 43t-79.5 21.5q-37 0 -58.5 -22t-45.5 -82z" />
<glyph unicode="&#xa2;" horiz-adv-x="1212" d="M447 -12l46 227q-162 57 -262.5 202t-100.5 325q0 110 42 212.5t114 178.5t173 121t213 45h32l33 176h105l-38 -190q88 -22 158 -68t137 -114l-73 -75q-39 40 -72.5 68.5t-79.5 54t-95 37.5l-173 -901q41 -8 73 -8q197 0 357 179l71 -63q-89 -102 -192.5 -156.5 t-242.5 -54.5q-39 0 -80 6l-40 -202h-105zM518 311l172 893h-20q-119 0 -218 -61.5t-155 -167.5t-56 -233q0 -146 76.5 -263t200.5 -168z" />
<glyph unicode="&#xa3;" horiz-adv-x="1344" d="M146 0v52l179 42v544h-179v99h179v247q0 78 16 148t46.5 128t74.5 102q121 121 313 121q79 0 146 -16.5t120 -48t93.5 -69t79.5 -87.5l-84 -65q-35 44 -68 75t-76 58.5t-96 41t-117 13.5q-147 0 -236 -90q-105 -104 -105 -309v-249h623v-99h-623v-540h782v-98h-1068z" />
<glyph unicode="&#xa5;" horiz-adv-x="1432" d="M664 0v261h-445v94h445v205h-445v94h407l-559 809h132l520 -780l522 780h125l-562 -809h410v-94h-445v-205h445v-94h-445v-261h-105z" />
<glyph unicode="&#xa8;" d="M279 1243v167h145v-167h-145zM620 1243v167h145v-167h-145z" />
<glyph unicode="&#xa9;" horiz-adv-x="1732" d="M865 -26q-156 0 -296.5 60.5t-240.5 162t-158.5 241.5t-58.5 293q0 152 59.5 291.5t160 241.5t241.5 162.5t297 60.5t296.5 -60t240.5 -161.5t158.5 -241t58.5 -293.5q0 -151 -59.5 -290.5t-160 -242t-241.5 -163.5t-297 -61zM865 34q146 0 275.5 55.5t221.5 150 t145.5 223.5t53.5 272q0 142 -53 270t-144.5 221t-220.5 148t-274 55q-117 0 -224.5 -35.5t-192 -100.5t-148 -151.5t-97.5 -193t-34 -221.5q0 -141 53 -269t144.5 -221.5t220.5 -148t274 -54.5zM875 347q-79 0 -150 31.5t-121 84.5t-79.5 126.5t-29.5 154.5q0 63 19 122.5 t54 108.5t81.5 86t105.5 57t122 20q94 0 161.5 -32.5t133.5 -94.5l-63 -64q-112 108 -234 108q-123 0 -206 -91t-83 -222q0 -84 39 -155.5t106 -114t146 -42.5q73 0 127.5 26.5t113.5 82.5l58 -59q-68 -66 -137 -99.5t-164 -33.5z" />
<glyph unicode="&#xab;" horiz-adv-x="1075" d="M441 88l-335 436v17l335 436l77 -50l-286 -393l286 -396zM867 88l-335 436v17l335 436l78 -50l-287 -393l287 -396z" />
<glyph unicode="&#xad;" horiz-adv-x="851" d="M146 562v117h560v-117h-560z" />
<glyph unicode="&#xae;" horiz-adv-x="1732" d="M865 -26q-156 0 -296.5 60.5t-240.5 162t-158.5 241.5t-58.5 293q0 152 59.5 291.5t160 241.5t241.5 162.5t297 60.5t296.5 -60t240.5 -161.5t158.5 -241t58.5 -293.5q0 -151 -59.5 -290.5t-160 -242t-241.5 -163.5t-297 -61zM865 34q146 0 275.5 55.5t221.5 150 t145.5 223.5t53.5 272q0 142 -53 270t-144.5 221t-220.5 148t-274 55q-117 0 -224.5 -35.5t-192 -100.5t-148 -151.5t-97.5 -193t-34 -221.5q0 -141 53 -269t144.5 -221.5t220.5 -148t274 -54.5zM576 369v765h343q46 0 88.5 -9.5t76.5 -26.5t58 -41q60 -59 60 -146 q0 -90 -56.5 -145.5t-153.5 -73.5l255 -323h-117l-247 308h-217v-308h-90zM666 760h239q43 0 80 9.5t64 28t42.5 47.5t15.5 66q0 41 -23 72.5t-66.5 48.5t-102.5 17h-249v-289z" />
<glyph unicode="&#xb4;" d="M405 1243l185 278l126 -62l-223 -216h-88z" />
<glyph unicode="&#xb8;" d="M453 -309l-114 54l187 275h90z" />
<glyph unicode="&#xbb;" horiz-adv-x="1075" d="M209 88l-77 50l286 392l-286 397l77 50l334 -436v-17zM635 88l-77 50l286 392l-286 397l77 50l334 -436v-17z" />
<glyph unicode="&#x2c6;" d="M271 1243l209 254h84l209 -254h-98l-155 142l-155 -142h-94z" />
<glyph unicode="&#x2da;" d="M522 1238q-82 0 -143.5 58.5t-61.5 140.5q0 79 61.5 136.5t143.5 57.5q83 0 144 -58t61 -140q0 -79 -61.5 -137t-143.5 -58zM522 1306q53 0 91.5 38.5t38.5 92.5q0 52 -38 90t-92 38q-53 0 -91 -38.5t-38 -93.5q0 -52 38.5 -89.5t90.5 -37.5z" />
<glyph unicode="&#x2dc;" d="M285 1224l-72 19q29 109 69.5 151.5t106.5 42.5q33 0 85 -21.5t102 -42.5t80 -21q37 0 58.5 21.5t45.5 82.5l71 -19q-19 -74 -44.5 -117t-56.5 -60t-74 -17q-34 0 -85.5 21.5t-102 43t-79.5 21.5q-26 0 -43 -10t-31 -32t-30 -63z" />
<glyph unicode="&#x401;" horiz-adv-x="1399" d="M217 0v1463h1041v-101h-933v-575h839v-100h-839v-587h943v-100h-1051zM499 1598v168h145v-168h-145zM839 1598v168h145v-168h-145z" />
<glyph unicode="&#x402;" horiz-adv-x="1788" d="M1178 -26q-60 0 -108 11t-103 35l36 91q42 -21 82 -29.5t99 -8.5q50 0 99 12.5t98 42.5t86 74.5t60 115t23 156.5q0 174 -102.5 282.5t-267.5 108.5q-153 0 -272 -49t-240 -156v-660h-108v1362h-447v101h1128v-101h-573v-585q78 62 153.5 102t164 62t188.5 22 q141 0 250 -56.5t172 -167.5t63 -263q0 -116 -36.5 -211t-100.5 -158.5t-152 -98t-192 -34.5z" />
<glyph unicode="&#x403;" horiz-adv-x="1232" d="M217 0v1463h913v-101h-805v-1362h-108zM564 1598l184 278l127 -62l-223 -216h-88z" />
<glyph unicode="&#x404;" horiz-adv-x="1541" d="M879 -26q-103 0 -198.5 27t-175.5 75t-145.5 117t-111 152t-70.5 180.5t-25 201.5q0 155 55.5 295t151 242.5t232 162.5t291.5 60q77 0 145 -12t122 -31.5t107 -51.5t95 -64.5t91 -77.5l-68 -76q-107 103 -223.5 159t-270.5 56q-123 0 -233 -46t-190.5 -126t-131 -191.5 t-59.5 -238.5h788v-100h-790q7 -103 41 -197.5t91 -170t131 -131t165 -85.5t190 -30q152 0 269.5 56t234.5 172l74 -76q-80 -80 -161 -133.5t-188 -85.5t-233 -32z" />
<glyph unicode="&#x405;" horiz-adv-x="1336" d="M712 -20q-173 0 -314 57t-275 176l71 82q124 -114 245.5 -165.5t279.5 -51.5q164 0 266.5 82.5t102.5 211.5q0 61 -18 105t-63.5 83t-126.5 68.5t-205 54.5q-263 54 -378 150.5t-115 265.5q0 107 60 195t168 138.5t242 50.5q105 0 192 -20t159.5 -58t149.5 -99l-69 -86 q-101 87 -206.5 126t-229.5 39q-159 0 -258 -80t-99 -200q0 -41 7.5 -73t25.5 -63t49.5 -55.5t78.5 -47.5t112.5 -43t151.5 -38q254 -52 367.5 -148t113.5 -259q0 -116 -62 -207t-173 -141t-250 -50z" />
<glyph unicode="&#x406;" horiz-adv-x="572" d="M232 0v1463h109v-1463h-109z" />
<glyph unicode="&#x407;" horiz-adv-x="572" d="M232 0v1463h109v-1463h-109zM44 1598v168h144v-168h-144zM385 1598v168h143v-168h-143z" />
<glyph unicode="&#x408;" horiz-adv-x="1146" d="M520 -20q-290 0 -442 273l89 56q71 -120 153 -175.5t206 -55.5q140 0 229 102.5t89 287.5v995h109v-987q0 -123 -35.5 -220t-98.5 -160q-116 -116 -299 -116z" />
<glyph unicode="&#x409;" horiz-adv-x="2460" d="M175 -14q-38 0 -90.5 10.5t-84.5 23.5l34 91q13 -6 35 -12t50.5 -9.5t53.5 -3.5q22 0 41 3.5t45 16.5t48 35.5t47 64t44.5 97t38 139.5t31 187.5t20 245t7.5 307.5v281h896v-588h433q85 0 161.5 -14.5t145 -47t118 -80.5t78.5 -119t29 -159q0 -139 -65.5 -242.5 t-183.5 -158t-273 -54.5h-552v1362h-682v-184q0 -173 -8 -319.5t-21.5 -258t-34 -202t-44 -153.5t-53.5 -110.5t-59.5 -75.5t-65.5 -45t-68 -22.5t-71 -5.5zM1391 100h425q202 0 315 89t113 262q0 160 -117 242t-325 82h-411v-675z" />
<glyph unicode="&#x40a;" horiz-adv-x="2439" d="M217 0v1463h108v-630h937v630h108v-630h454q85 0 160 -14t140 -45.5t111.5 -77.5t73.5 -113t27 -148q0 -198 -135 -316.5t-367 -118.5h-572v733h-937v-733h-108zM1370 100h446q197 0 302 84.5t105 245.5q0 148 -108.5 225.5t-312.5 77.5h-432v-633z" />
<glyph unicode="&#x40b;" horiz-adv-x="1831" d="M560 0v1362h-447v101h1128v-101h-573v-616q78 61 153.5 101t164 62t188.5 22q106 0 194.5 -26.5t153.5 -78t101 -132t36 -182.5v-512h-109v522q0 140 -102.5 225.5t-267.5 85.5q-153 0 -272 -48.5t-240 -156.5v-628h-108z" />
<glyph unicode="&#x40c;" horiz-adv-x="1493" d="M217 0v1463h108v-961l933 961h148l-639 -646l666 -817h-142l-601 740l-365 -368v-372h-108zM633 1598l184 278l128 -62l-224 -216h-88z" />
<glyph unicode="&#x40e;" horiz-adv-x="1517" d="M422 -26q-70 0 -123 12.5t-111 39.5l42 93q46 -23 88 -32t104 -9q61 0 116.5 23.5t111.5 82t102 149.5l-660 1130h127l588 -1018l501 1018h119l-581 -1166q-84 -167 -194 -245t-230 -78zM807 1594q-109 0 -186 68t-97 172l86 19q20 -72 69 -112.5t128 -40.5 q154 0 196 153l85 -19q-12 -68 -50.5 -122t-98.5 -86t-132 -32z" />
<glyph unicode="&#x40f;" horiz-adv-x="1566" d="M737 -335v335h-520v1463h108v-1363h916v1363h108v-1463h-498v-335h-114z" />
<glyph unicode="&#x410;" horiz-adv-x="1649" d="M92 0l681 1473h104l682 -1473h-120l-185 409h-863l-186 -409h-113zM437 508h771l-385 846z" />
<glyph unicode="&#x411;" horiz-adv-x="1477" d="M217 0v1463h1019v-101h-911v-518h494q93 0 172 -14.5t145.5 -46t113 -79t72 -116t25.5 -153.5q0 -140 -61 -238t-175.5 -147.5t-275.5 -49.5h-618zM325 100h490q419 0 419 335q0 153 -112 231t-318 78h-479v-644z" />
<glyph unicode="&#x412;" horiz-adv-x="1507" d="M217 0v1463h604q215 0 344.5 -99.5t129.5 -264.5q0 -49 -10 -92t-28 -76.5t-41 -61.5t-52 -50t-57.5 -38.5t-59.5 -28.5q69 -19 125.5 -46.5t104 -69t74 -102t26.5 -135.5q0 -121 -65 -211.5t-184 -139t-275 -48.5h-636zM325 100h532q124 0 216.5 36.5t142.5 105 t50 161.5q0 54 -18.5 98.5t-55 79t-90 58.5t-124.5 36t-157 12h-496v-587zM325 787h484q169 0 272 80t103 225q0 123 -96 196.5t-269 73.5h-494v-575z" />
<glyph unicode="&#x413;" horiz-adv-x="1232" d="M217 0v1463h913v-101h-805v-1362h-108z" />
<glyph unicode="&#x414;" horiz-adv-x="1568" d="M20 -335v435h157q112 158 173 434t61 619v310h897v-1363h199l-22 -435h-92v335h-1259l-21 -335h-93zM303 100h897v1262h-682v-288q0 -297 -57.5 -562t-157.5 -412z" />
<glyph unicode="&#x415;" horiz-adv-x="1399" d="M217 0v1463h1041v-101h-933v-575h839v-100h-839v-587h943v-100h-1051z" />
<glyph unicode="&#x416;" horiz-adv-x="2238" d="M48 0l616 833l-574 630h137l838 -933v933h109v-933l837 933h138l-574 -630l616 -833h-136l-556 752l-325 -357v-395h-109v395l-328 357l-553 -752h-136z" />
<glyph unicode="&#x417;" horiz-adv-x="1305" d="M679 -26q-173 0 -317.5 58t-277.5 177l71 82q123 -113 247 -165.5t281 -52.5q107 0 192.5 38.5t135.5 110.5t50 165t-51 161t-148.5 105t-233.5 37h-158v95h160q112 0 199.5 36t139.5 107t52 166q0 128 -102.5 210.5t-260.5 82.5q-241 0 -443 -165l-65 84 q114 92 235 135.5t277 43.5q210 0 341 -110t131 -281q0 -72 -23.5 -131.5t-65 -100.5t-87.5 -68.5t-101 -45.5q69 -20 125.5 -51.5t100 -75.5t67.5 -104.5t24 -131.5q0 -84 -36.5 -159.5t-100.5 -131t-157 -88t-201 -32.5z" />
<glyph unicode="&#x418;" horiz-adv-x="1599" d="M217 0v1463h108v-1306l951 1306h107v-1463h-109v1306l-949 -1306h-108z" />
<glyph unicode="&#x419;" horiz-adv-x="1599" d="M217 0v1463h108v-1306l951 1306h107v-1463h-109v1306l-949 -1306h-108zM802 1583q-109 0 -185.5 68t-96.5 173l86 18q41 -152 196 -152t197 152l85 -18q-13 -68 -51 -122.5t-98.5 -86.5t-132.5 -32z" />
<glyph unicode="&#x41a;" horiz-adv-x="1493" d="M217 0v1463h108v-961l933 961h148l-639 -646l666 -817h-142l-601 740l-365 -368v-372h-108z" />
<glyph unicode="&#x41b;" horiz-adv-x="1607" d="M175 -14q-38 0 -90.5 10.5t-84.5 23.5l34 91q13 -6 35 -12t50.5 -9.5t53.5 -3.5q22 0 41 3.5t45 16.5t48 35.5t47 64t44.5 97t38 139.5t31 187.5t20 245t7.5 307.5v281h896v-1463h-109v1362h-682v-184q0 -173 -8 -319.5t-21.5 -258t-34 -202t-44 -153.5t-53.5 -110.5 t-59.5 -75.5t-65.5 -45t-68 -22.5t-71 -5.5z" />
<glyph unicode="&#x41c;" horiz-adv-x="1812" d="M217 0v1463h102l588 -865l586 865h103v-1463h-109v1270l-578 -842h-8l-580 842v-1270h-104z" />
<glyph unicode="&#x41d;" horiz-adv-x="1587" d="M217 0v1463h108v-678h937v678h108v-1463h-108v685h-937v-685h-108z" />
<glyph unicode="&#x41e;" horiz-adv-x="1774" d="M885 -26q-81 0 -158 16.5t-143 46t-125 71.5t-106 94t-85 113t-63 128t-38.5 140t-13.5 148q0 119 33.5 231.5t98.5 207t153.5 166t205 111.5t246 40t245.5 -39.5t204 -110.5t152.5 -165.5t98 -207t33.5 -233.5q0 -119 -34 -231.5t-99 -207t-153.5 -166t-205 -112 t-246.5 -40.5zM889.5 73q132.5 0 249 52t197.5 140.5t128 209.5t47 256q0 134 -47.5 255t-129.5 210t-199 141t-249.5 52t-248.5 -51.5t-197.5 -140t-128 -209.5t-46.5 -257q0 -134 47.5 -255t129 -209.5t198.5 -141t249.5 -52.5z" />
<glyph unicode="&#x41f;" horiz-adv-x="1566" d="M217 0v1463h1132v-1463h-108v1362h-916v-1362h-108z" />
<glyph unicode="&#x420;" horiz-adv-x="1395" d="M217 0v1463h531q120 0 220 -30.5t172 -87.5t111.5 -142.5t39.5 -191.5q0 -90 -30 -166t-82.5 -130.5t-124.5 -93t-156.5 -57t-176.5 -18.5h-396v-546h-108zM325 646h402q205 0 330 99t125 264q0 113 -56 193.5t-155 120t-231 39.5h-415v-716z" />
<glyph unicode="&#x421;" horiz-adv-x="1541" d="M879 -26q-103 0 -198.5 27t-175.5 75.5t-145.5 117.5t-111 152.5t-70.5 182t-25 202.5q0 154 55.5 293t151 241t232 162t291.5 60q95 0 175.5 -17t149 -52t122 -74t115.5 -97l-70 -73q-107 103 -223.5 159t-270.5 56q-129 0 -243.5 -50.5t-196 -138t-129 -209.5 t-47.5 -260q0 -136 48 -258t130 -209.5t197 -139t243 -51.5q152 0 269.5 56t234.5 172l74 -71q-49 -49 -95.5 -86t-101.5 -70t-113 -54t-127 -33.5t-145 -12.5z" />
<glyph unicode="&#x422;" horiz-adv-x="1353" d="M622 0v1362h-509v101h1128v-101h-510v-1362h-109z" />
<glyph unicode="&#x423;" horiz-adv-x="1517" d="M422 -26q-70 0 -123 12.5t-111 39.5l42 93q46 -23 88 -32t104 -9q61 0 116.5 23.5t111.5 82t102 149.5l-660 1130h127l588 -1018l501 1018h119l-581 -1166q-84 -167 -194 -245t-230 -78z" />
<glyph unicode="&#x424;" horiz-adv-x="1800" d="M846 -54v162h-69q-156 0 -285 49.5t-213 135t-129.5 198.5t-45.5 242t45.5 242.5t129.5 199.5t213 135.5t285 49.5h69v149h109v-149h69q126 0 234 -32.5t188 -90t136.5 -135.5t85 -172t28.5 -197q0 -129 -45.5 -242t-129 -198.5t-212 -135t-285.5 -49.5h-69v-162h-109z M777 207h69v1055h-69q-88 -2 -165.5 -20.5t-139 -51.5t-109.5 -79.5t-80 -105t-49 -127t-17 -145.5q0 -115 37.5 -210.5t108 -165t176.5 -109t238 -41.5zM955 207h69q133 2 239 41.5t176 109t107 165t37 211t-37 211.5t-107 165.5t-176.5 109t-238.5 42.5h-69v-1055z" />
<glyph unicode="&#x425;" horiz-adv-x="1507" d="M106 0l584 746l-562 717h129l499 -644l498 644h127l-560 -715l580 -748h-129l-520 675l-518 -675h-128z" />
<glyph unicode="&#x426;" horiz-adv-x="1610" d="M1435 -335v335h-1218v1463h108v-1363h916v1363h108v-1363h199l-21 -435h-92z" />
<glyph unicode="&#x427;" horiz-adv-x="1441" d="M1116 0v652q-101 -56 -239 -104.5t-247 -48.5q-215 0 -339 108t-124 312v544h108v-554q0 -142 93 -226.5t256 -84.5q114 0 245 44.5t247 111.5v709h108v-1463h-108z" />
<glyph unicode="&#x428;" horiz-adv-x="2297" d="M217 0v1463h108v-1363h769v1363h110v-1363h768v1363h109v-1463h-1864z" />
<glyph unicode="&#x429;" horiz-adv-x="2340" d="M2166 -335v335h-1949v1463h108v-1363h769v1363h110v-1363h768v1363h109v-1363h198l-21 -435h-92z" />
<glyph unicode="&#x42a;" horiz-adv-x="1678" d="M502 0v1362h-398v101h506v-588h432q86 0 162.5 -14.5t145 -47t118 -80.5t78.5 -119t29 -159q0 -139 -65.5 -242.5t-183.5 -158t-273 -54.5h-551zM610 100h424q202 0 315.5 89t113.5 262q0 107 -54.5 180t-152.5 108.5t-235 35.5h-411v-675z" />
<glyph unicode="&#x42b;" horiz-adv-x="1816" d="M217 0v1463h108v-588h433q85 0 162 -14.5t145.5 -47t118 -80.5t78.5 -119t29 -159q0 -139 -65.5 -242.5t-183.5 -158t-273 -54.5h-552zM325 100h425q202 0 315 89t113 262q0 80 -30.5 142t-88 102t-138.5 60t-184 20h-412v-675zM1491 0v1463h109v-1463h-109z" />
<glyph unicode="&#x42c;" horiz-adv-x="1395" d="M217 0v1463h108v-588h433q85 0 162 -14.5t145.5 -47t118 -80.5t78.5 -119t29 -159q0 -139 -65.5 -242.5t-183.5 -158t-273 -54.5h-552zM325 100h425q202 0 315 89t113 262q0 80 -30.5 142t-88 102t-138.5 60t-184 20h-412v-675z" />
<glyph unicode="&#x42d;" horiz-adv-x="1541" d="M662 -26q-184 0 -322 64t-258 187l73 76q117 -116 234 -172t269 -56q123 0 234 47t192 128.5t131.5 195.5t58.5 243h-787v100h787q-9 128 -60 239t-131 191t-190 126t-233 46q-64 0 -123.5 -10.5t-108 -29t-96 -46.5t-86 -59t-79.5 -70l-69 76q62 57 115.5 96t121.5 73.5 t148 51t175 16.5q155 0 292 -60t232.5 -162.5t151 -242.5t55.5 -295t-55 -294t-151 -240t-231.5 -160t-289.5 -59z" />
<glyph unicode="&#x42e;" horiz-adv-x="2167" d="M1333 -26q-116 0 -220 35.5t-184.5 99.5t-141 152t-94.5 196t-39 228h-329v-685h-108v1463h108v-678h329q9 148 62.5 276.5t141 223t212 148.5t267.5 54q150 0 277.5 -58t215 -159t137 -240t49.5 -296.5t-50 -297.5t-138.5 -241.5t-216.5 -161t-278 -59.5zM1337.5 73 q122.5 0 228 50.5t179.5 137.5t116 209t42 261q0 111 -27 211.5t-78 181.5t-120.5 140.5t-158 92t-186.5 32.5q-123 0 -228.5 -50t-179.5 -137.5t-116 -209t-42 -261.5q0 -138 42.5 -259.5t117.5 -209t181.5 -138.5t229 -51z" />
<glyph unicode="&#x42f;" horiz-adv-x="1509" d="M100 0l466 604q-190 26 -300.5 138t-110.5 294q0 90 36.5 168.5t103 135.5t165.5 90t217 33h614v-1463h-109v584h-495l-449 -584h-138zM690 683h492v679h-499q-130 0 -225.5 -41.5t-145 -116.5t-49.5 -176q0 -78 32.5 -143t89 -109t135 -68.5t170.5 -24.5z" />
<glyph unicode="&#x430;" horiz-adv-x="1198" d="M518 -26q-83 0 -157 22t-131 63t-90.5 106.5t-33.5 147.5q0 109 59.5 188t164 119t242.5 40q183 0 353 -46v46q0 159 -92 242.5t-259 83.5q-165 0 -333 -85l-38 89q98 45 186.5 68.5t190.5 23.5q220 0 337 -117q109 -109 109 -301v-664h-101v177q-23 -32 -51 -60 t-65.5 -55t-80 -46t-97 -30.5t-113.5 -11.5zM524 71q81 0 154.5 24.5t128.5 67t87.5 104t32.5 132.5v121q-183 48 -361 48q-166 0 -257.5 -68t-91.5 -185q0 -114 83.5 -179t223.5 -65z" />
<glyph unicode="&#x431;" horiz-adv-x="1340" d="M681 -26q-115 0 -213.5 42t-169.5 117.5t-111.5 185.5t-40.5 241q0 90 2 151t10.5 140.5t23.5 134.5t43 116t68 102.5t99 76.5t134 54l606 152l30 -92l-586 -154q-168 -44 -241 -139t-88 -283q151 251 461 251q103 0 198 -44t163.5 -117.5t109.5 -174t41 -208.5 q0 -88 -26 -171t-74.5 -151.5t-114 -120t-149 -80.5t-175.5 -29zM685 71q121 0 218.5 61t151.5 164t54 226q0 93 -33.5 176.5t-90 143.5t-136 95.5t-168.5 35.5q-72 0 -138 -23t-117.5 -64.5t-90 -97t-58.5 -124t-20 -142.5q0 -123 56.5 -227t155 -164t216.5 -60z" />
<glyph unicode="&#x432;" horiz-adv-x="1210" d="M194 0v1065h487q157 0 251 -72t94 -193q0 -42 -11 -77.5t-27.5 -60.5t-41.5 -46.5t-48.5 -34.5t-51.5 -25q50 -13 91.5 -35t76 -54t53.5 -77t19 -99q0 -133 -104.5 -212t-277.5 -79h-510zM297 92h395q133 0 210.5 57t77.5 156q0 62 -35.5 106.5t-106.5 68.5t-172 24h-369 v-412zM297 590h369q115 0 185 53t70 151q0 81 -65 130t-184 49h-375v-383z" />
<glyph unicode="&#x433;" horiz-adv-x="960" d="M194 0v1065h705v-92h-602v-973h-103z" />
<glyph unicode="&#x434;" horiz-adv-x="1273" d="M30 -301v393h139q156 258 156 747v226h715v-973h172l-22 -393h-83v301h-971l-21 -301h-85zM282 92h656v881h-514v-192q0 -209 -39 -395t-103 -294z" />
<glyph unicode="&#x435;" horiz-adv-x="1219" d="M644 -26q-105 0 -200 41t-166.5 113t-114 177.5t-42.5 228.5q0 115 39 217.5t105.5 177t160.5 118t200 43.5q110 0 202.5 -43t155 -117.5t97.5 -177t35 -220.5q0 -25 -2 -41h-884q6 -97 43 -177t94 -132.5t129.5 -81.5t151.5 -29t148.5 23t119.5 58t97 86l71 -63 q-89 -97 -192.5 -149t-247.5 -52zM230 582h775q-6 83 -32.5 156t-72.5 131.5t-117.5 93t-160.5 34.5q-104 0 -190.5 -54.5t-139.5 -149t-62 -211.5z" />
<glyph unicode="&#x436;" horiz-adv-x="1744" d="M54 0l452 604l-424 461h129l610 -678v678h102v-678l610 678h130l-427 -461l454 -604h-125l-393 530l-249 -269v-261h-102v261l-249 271l-392 -532h-126z" />
<glyph unicode="&#x437;" d="M528 -20q-240 0 -434 158l63 83q87 -73 176 -109.5t191 -36.5q73 0 139.5 28t109 79t42.5 113q0 94 -79 149t-218 55h-146v93h148q76 0 135.5 24t94.5 72t35 112q0 84 -73 136t-184 52q-85 0 -173.5 -27t-157.5 -82l-61 82q168 123 394 123q167 0 268 -79t101 -205 q0 -93 -48 -153.5t-124 -92.5q198 -69 198 -261q0 -63 -29 -120t-80 -99.5t-126 -68t-162 -25.5z" />
<glyph unicode="&#x438;" horiz-adv-x="1315" d="M194 0v1065h103v-929l722 929h103v-1065h-103v929l-722 -929h-103z" />
<glyph unicode="&#x439;" horiz-adv-x="1315" d="M194 0v1065h103v-929l722 929h103v-1065h-103v929l-722 -929h-103zM658 1238q-108 0 -185 68.5t-97 172.5l86 18q41 -152 196 -152t197 152l85 -18q-19 -104 -96.5 -172.5t-185.5 -68.5z" />
<glyph unicode="&#x43a;" horiz-adv-x="1160" d="M194 0v1065h103v-683l660 683h135l-466 -471l481 -594h-130l-421 520l-259 -261v-259h-103z" />
<glyph unicode="&#x43b;" horiz-adv-x="1273" d="M125 -16q-58 0 -117 16l20 94q50 -14 80 -14q27 0 46 3t41.5 14t38.5 30.5t33.5 54t29.5 83t23.5 118t18.5 159t11 207t5 260.5v56h725v-1065h-103v973h-524v-28q0 -146 -5.5 -265.5t-14 -211.5t-23 -164t-30 -123t-38.5 -87t-44.5 -57.5t-51.5 -33.5t-57 -15.5t-64 -3.5 z" />
<glyph unicode="&#x43c;" horiz-adv-x="1441" d="M194 0v1065h93l434 -612l435 612h91v-1065h-103v887l-428 -588l-423 588v-887h-99z" />
<glyph unicode="&#x43d;" horiz-adv-x="1300" d="M194 0v1065h103v-473h708v473h102v-1065h-102v499h-708v-499h-103z" />
<glyph unicode="&#x43e;" horiz-adv-x="1336" d="M666 -26q-116 0 -218 45t-173 120.5t-112.5 178t-41.5 214.5q0 111 42 213.5t113.5 178.5t174.5 121t219 45t218 -44.5t173.5 -120t113 -178t41.5 -215.5q0 -110 -42 -212.5t-114 -178.5t-175 -121.5t-219 -45.5zM670 71q87 0 167 36.5t139 98.5t94 147.5t35 178.5 q0 95 -35 181t-94 147.5t-140 97.5t-170 36q-71 0 -137.5 -23t-119.5 -66t-93.5 -99.5t-62 -127t-21.5 -146.5q0 -94 34 -179.5t92 -147t139.5 -98t172.5 -36.5z" />
<glyph unicode="&#x43f;" horiz-adv-x="1273" d="M194 0v1065h886v-1065h-103v973h-680v-973h-103z" />
<glyph unicode="&#x440;" horiz-adv-x="1378" d="M194 -335v1400h103v-238q173 263 438 263q78 0 153 -23.5t141 -71.5t116 -114t79.5 -156t29.5 -193q0 -72 -15.5 -139.5t-43 -122.5t-65 -102.5t-83 -82.5t-96.5 -60t-106 -38t-110 -13q-271 0 -438 256v-565h-103zM725 73q87 0 163 31.5t132.5 89t89 145t32.5 193.5 q0 103 -33.5 190t-91 145.5t-133 91.5t-159.5 33q-83 0 -161 -34t-139 -93t-97.5 -146.5t-36.5 -188.5q0 -66 16.5 -128t46.5 -111.5t71 -90.5t89 -69t102 -43t109 -15z" />
<glyph unicode="&#x441;" horiz-adv-x="1192" d="M664 -26q-113 0 -214 44.5t-173 119.5t-114 178t-42 216t42.5 216t114.5 178t173 119.5t213 44.5q139 0 241.5 -53.5t182.5 -145.5l-71 -72q-39 40 -73 68t-78 54.5t-95.5 39.5t-108.5 13q-87 0 -166.5 -36.5t-137.5 -98t-92 -147.5t-34 -180q0 -63 15.5 -123 t43.5 -110.5t68 -93t88.5 -72t105.5 -46t117 -16.5q191 0 354 182l75 -67q-89 -102 -192.5 -157t-242.5 -55z" />
<glyph unicode="&#x442;" horiz-adv-x="1025" d="M462 0v973h-400v92h901v-92h-399v-973h-102z" />
<glyph unicode="&#x443;" horiz-adv-x="1228" d="M323 -341q-59 0 -107 11t-103 35l35 90q43 -21 84 -30.5t98 -9.5q85 0 145 56.5t119 194.5l-512 1059h119l443 -952l384 952h112l-461 -1103q-68 -163 -153 -233t-203 -70z" />
<glyph unicode="&#x444;" horiz-adv-x="1786" d="M842 -335v431q-70 -59 -133 -90.5t-149 -31.5q-96 0 -176.5 39t-137.5 110.5t-89 177.5t-32 236q0 256 119.5 404.5t315.5 148.5q89 0 151.5 -31.5t130.5 -93.5v498h103v-498q64 61 127.5 93t153.5 32q196 0 315.5 -149t119.5 -409q0 -257 -120 -407.5t-315 -150.5 q-51 0 -92 9t-76.5 29.5t-56.5 36.5t-56 47v-431h-103zM570 73q154 0 272 128v664q-118 127 -272 127q-164 0 -249 -122.5t-85 -341.5q0 -220 82 -337.5t252 -117.5zM1216 73q170 0 252 118t82 341q0 215 -85 337.5t-249 122.5q-154 0 -271 -127v-664q117 -128 271 -128z " />
<glyph unicode="&#x445;" horiz-adv-x="1190" d="M94 0l436 543l-419 522h127l360 -451l359 451h123l-420 -519l436 -546h-127l-375 474l-377 -474h-123z" />
<glyph unicode="&#x446;" horiz-adv-x="1313" d="M1146 -301v301h-952v1065h103v-973h680v973h103v-973h172l-22 -393h-84z" />
<glyph unicode="&#x447;" horiz-adv-x="1168" d="M873 0v466q-73 -41 -180 -75t-202 -34q-161 0 -254 79.5t-93 229.5v399h103v-401q0 -98 64 -155.5t176 -57.5q95 0 203 32.5t183 84.5v497h102v-1065h-102z" />
<glyph unicode="&#x448;" horiz-adv-x="1873" d="M194 0v1065h103v-973h588v973h103v-973h589v973h103v-1065h-1486z" />
<glyph unicode="&#x449;" horiz-adv-x="1912" d="M1746 -301v301h-1552v1065h103v-973h588v973h103v-973h589v973h103v-973h171l-21 -393h-84z" />
<glyph unicode="&#x44a;" horiz-adv-x="1292" d="M382 0v973h-340v92h442v-409h318q85 0 157.5 -18.5t129 -55.5t89 -98.5t32.5 -140.5q0 -155 -106.5 -249t-282.5 -94h-439zM484 92h320q136 0 215.5 65t79.5 182q0 53 -21.5 95.5t-61 71t-95.5 43.5t-125 15h-312v-472z" />
<glyph unicode="&#x44b;" horiz-adv-x="1531" d="M194 0v1065h103v-409h317q85 0 157.5 -18.5t129 -55.5t88.5 -98.5t32 -140.5q0 -155 -106 -249t-282 -94h-439zM297 92h319q136 0 215.5 65t79.5 182q0 106 -81 165.5t-222 59.5h-311v-472zM1234 0v1065h103v-1065h-103z" />
<glyph unicode="&#x44c;" horiz-adv-x="1104" d="M194 0v1065h103v-409h317q85 0 157.5 -18.5t129 -55.5t88.5 -98.5t32 -140.5q0 -155 -106 -249t-282 -94h-439zM297 92h319q136 0 215.5 65t79.5 182q0 106 -81 165.5t-222 59.5h-311v-472z" />
<glyph unicode="&#x44d;" horiz-adv-x="1192" d="M528 -26q-140 0 -245.5 55t-188.5 157l75 65q162 -180 353 -180q115 0 212 55.5t157 153.5t68 219h-560v93h558q-13 112 -73.5 204.5t-154 145t-199.5 52.5q-110 0 -193 -45.5t-162 -129.5l-69 70q43 45 81.5 76.5t90.5 62.5t115 46.5t135 15.5q115 0 217 -45t173 -121.5 t112.5 -179.5t41.5 -216q0 -110 -42 -212t-114 -177t-173.5 -120t-214.5 -45z" />
<glyph unicode="&#x44e;" horiz-adv-x="1712" d="M1074 -26q-111 0 -205 40.5t-159 110.5t-104 163.5t-46 200.5h-263v-489h-103v1065h103v-483h263q8 104 48 196t105.5 161.5t160 110t204.5 40.5q115 0 212.5 -44.5t163 -120.5t102 -177.5t36.5 -215.5q0 -89 -23 -172.5t-68 -153t-107 -121.5t-144.5 -81.5t-175.5 -29.5 zM1078 71q93 0 169.5 36.5t127.5 99t78.5 146.5t27.5 179q0 129 -49.5 234t-143 166.5t-214.5 61.5q-93 0 -169.5 -36t-127.5 -99t-79 -147t-28 -180q0 -128 50 -232.5t144 -166.5t214 -62z" />
<glyph unicode="&#x44f;" horiz-adv-x="1198" d="M108 0l337 424q-134 25 -220.5 110.5t-86.5 213.5q0 142 104.5 229.5t285.5 87.5h477v-1065h-102v409h-351l-318 -409h-126zM548 502h355v471h-360q-138 0 -216 -62.5t-78 -168.5q0 -110 84 -175t215 -65z" />
<glyph unicode="&#x451;" horiz-adv-x="1219" d="M644 -26q-105 0 -200 41t-166.5 113t-114 177.5t-42.5 228.5q0 115 39 217.5t105.5 177t160.5 118t200 43.5q110 0 202.5 -43t155 -117.5t97.5 -177t35 -220.5q0 -25 -2 -41h-884q6 -97 43 -177t94 -132.5t129.5 -81.5t151.5 -29t148.5 23t119.5 58t97 86l71 -63 q-89 -97 -192.5 -149t-247.5 -52zM230 582h775q-6 83 -32.5 156t-72.5 131.5t-117.5 93t-160.5 34.5q-104 0 -190.5 -54.5t-139.5 -149t-62 -211.5zM378 1243v167h144v-167h-144zM719 1243v167h144v-167h-144z" />
<glyph unicode="&#x452;" horiz-adv-x="1280" d="M681 -26q-59 0 -107.5 11t-103.5 35l36 91q29 -14 54.5 -22.5t56.5 -13t70 -4.5q91 0 163 44.5t113.5 127t41.5 189.5v201q0 167 -89.5 265.5t-249.5 98.5q-77 0 -145.5 -29t-117.5 -78.5t-77.5 -120.5t-28.5 -153v-616h-103v1212h-174v94h174v219h103v-219h478v-94h-478 v-345q127 223 384 223q132 0 229.5 -56.5t147 -155t49.5 -226.5v-238q0 -128 -49.5 -227t-147 -156t-229.5 -57z" />
<glyph unicode="&#x453;" horiz-adv-x="960" d="M194 0v1065h705v-92h-602v-973h-103zM430 1243l184 278l128 -62l-224 -216h-88z" />
<glyph unicode="&#x454;" horiz-adv-x="1192" d="M664 -26q-113 0 -214 45t-173 120t-114 177t-42 212q0 113 41.5 216t112.5 179.5t172.5 121.5t216.5 45q72 0 135 -15.5t115 -46.5t91 -62.5t81 -76.5l-69 -70q-79 84 -162 129.5t-193 45.5q-106 0 -199.5 -52.5t-154.5 -145t-74 -204.5h560v-93h-562q9 -121 68.5 -219 t157 -153.5t212.5 -55.5q193 0 354 180l75 -65q-84 -102 -189 -157t-246 -55z" />
<glyph unicode="&#x455;" horiz-adv-x="1037" d="M539 -20q-115 0 -233 42t-204 112l61 81q183 -140 383 -140q72 0 130 25t92 72t34 110q0 30 -10 55.5t-31 46t-44 36t-59 29.5t-65 23.5t-73 22.5q-2 0 -6 1q-49 15 -74.5 22.5t-70.5 24t-69.5 30.5t-56 37t-48 48t-28.5 59.5t-12 74.5q0 128 98 211t253 83 q95 0 196 -31.5t181 -85.5l-54 -86q-163 107 -327 107q-109 0 -176 -53t-67 -137q0 -25 9 -47t22 -38.5t38 -32.5t46 -26.5t57 -23t59.5 -19.5t65.5 -19q43 -12 74 -22t70 -25.5t66.5 -31.5t55.5 -39.5t45.5 -49.5t28.5 -60.5t11 -74.5q0 -56 -18.5 -105.5t-52.5 -86.5 t-79.5 -64t-101 -41t-116.5 -14z" />
<glyph unicode="&#x456;" horiz-adv-x="519" d="M209 0v1065h102v-1065h-102zM197 1343v140h126v-140h-126z" />
<glyph unicode="&#x457;" horiz-adv-x="519" d="M18 1243v167h145v-167h-145zM359 1243v167h145v-167h-145zM209 0v1065h102v-1065h-102z" />
<glyph unicode="&#x458;" horiz-adv-x="519" d="M84 -341q-44 0 -86 8v90q38 -6 84 -6q58 0 92.5 38t34.5 111v1165h102v-1159q0 -122 -60.5 -184.5t-166.5 -62.5zM197 1343v140h126v-140h-126z" />
<glyph unicode="&#x459;" horiz-adv-x="1888" d="M125 -16q-58 0 -117 16l20 94q50 -14 80 -14q27 0 46 3t41.5 14t38.5 30.5t33.5 54t29.5 83t23.5 118t18.5 159t11 207t5 260.5v56h725v-409h317q86 0 158 -18.5t128.5 -55.5t88.5 -98.5t32 -140.5q0 -155 -106 -249t-281 -94h-440v973h-524v-28q0 -146 -5.5 -265.5 t-14 -211.5t-23 -164t-30 -123t-38.5 -87t-44.5 -57.5t-51.5 -33.5t-57 -15.5t-64 -3.5zM1080 92h319q137 0 216 65t79 182q0 106 -81 165.5t-222 59.5h-311v-472z" />
<glyph unicode="&#x45a;" horiz-adv-x="1915" d="M194 0v1065h103v-439h708v439h102v-439h318q68 0 127 -9.5t111.5 -32t89 -56.5t58 -84.5t21.5 -115.5q0 -153 -105.5 -240.5t-283.5 -87.5h-438v534h-708v-534h-103zM1107 92h320q138 0 216.5 58t78.5 173q0 106 -80 158.5t-223 52.5h-312v-442z" />
<glyph unicode="&#x45b;" horiz-adv-x="1280" d="M194 0v1212h-174v94h174v219h103v-219h478v-94h-478v-345q127 223 384 223q132 0 229.5 -56.5t147 -155t49.5 -226.5v-652h-102v633q0 167 -89.5 265.5t-249.5 98.5q-77 0 -145.5 -29t-117.5 -78.5t-77.5 -120.5t-28.5 -153v-616h-103z" />
<glyph unicode="&#x45c;" horiz-adv-x="1160" d="M194 0v1065h103v-683l660 683h135l-466 -471l481 -594h-130l-421 520l-259 -261v-259h-103zM466 1243l184 278l127 -62l-223 -216h-88z" />
<glyph unicode="&#x45e;" horiz-adv-x="1228" d="M323 -341q-59 0 -107 11t-103 35l35 90q43 -21 84 -30.5t98 -9.5q85 0 145 56.5t119 194.5l-512 1059h119l443 -952l384 952h112l-461 -1103q-68 -163 -153 -233t-203 -70zM643.5 1238q-108.5 0 -185.5 68.5t-97 172.5l86 18q41 -152 197 -152q154 0 195 152l86 -18 q-19 -104 -96 -172.5t-185.5 -68.5z" />
<glyph unicode="&#x45f;" horiz-adv-x="1286" d="M594 -301v301h-400v1065h103v-971h680v971h103v-1065h-382v-301h-104z" />
<glyph unicode="&#x490;" horiz-adv-x="1232" d="M217 0v1463h800v333h92l21 -434h-805v-1362h-108z" />
<glyph unicode="&#x491;" horiz-adv-x="960" d="M194 0v1065h600v301h83l22 -393h-602v-973h-103z" />
<glyph unicode="&#x2000;" horiz-adv-x="938" />
<glyph unicode="&#x2001;" horiz-adv-x="1876" />
<glyph unicode="&#x2002;" horiz-adv-x="938" />
<glyph unicode="&#x2003;" horiz-adv-x="1876" />
<glyph unicode="&#x2004;" horiz-adv-x="625" />
<glyph unicode="&#x2005;" horiz-adv-x="469" />
<glyph unicode="&#x2006;" horiz-adv-x="312" />
<glyph unicode="&#x2007;" horiz-adv-x="312" />
<glyph unicode="&#x2008;" horiz-adv-x="234" />
<glyph unicode="&#x2009;" horiz-adv-x="375" />
<glyph unicode="&#x200a;" horiz-adv-x="104" />
<glyph unicode="&#x2010;" horiz-adv-x="851" d="M146 562v117h560v-117h-560z" />
<glyph unicode="&#x2011;" horiz-adv-x="851" d="M146 562v117h560v-117h-560z" />
<glyph unicode="&#x2012;" horiz-adv-x="851" d="M146 562v117h560v-117h-560z" />
<glyph unicode="&#x2013;" horiz-adv-x="1102" d="M146 566v109h811v-109h-811z" />
<glyph unicode="&#x2014;" horiz-adv-x="1875" d="M146 566v109h1584v-109h-1584z" />
<glyph unicode="&#x2018;" horiz-adv-x="480" d="M161 1072v154q0 97 40 154t134 93l24 -52q-63 -32 -89.5 -66.5t-26.5 -86.5v-18h56v-178h-138z" />
<glyph unicode="&#x2019;" horiz-adv-x="480" d="M146 1061l-25 53q64 31 90.5 65.5t26.5 86.5v19h-56v178h137v-155q0 -98 -39.5 -154.5t-133.5 -92.5z" />
<glyph unicode="&#x201a;" horiz-adv-x="480" d="M136 -223l-25 52q63 31 89.5 66t26.5 87v18h-56v177h138v-154q0 -97 -39.5 -154t-133.5 -92z" />
<glyph unicode="&#x201c;" horiz-adv-x="855" d="M161 1072v154q0 97 40 154t134 93l24 -52q-63 -32 -89.5 -66.5t-26.5 -86.5v-18h56v-178h-138zM537 1072v154q0 49 9 86.5t30 67.5t53.5 52.5t80.5 40.5l25 -52q-63 -32 -90 -67t-27 -86v-18h57v-178h-138z" />
<glyph unicode="&#x201d;" horiz-adv-x="855" d="M146 1061l-25 53q64 31 90.5 65.5t26.5 86.5v19h-56v178h137v-155q0 -98 -39.5 -154.5t-133.5 -92.5zM522 1061l-25 53q63 32 90 66t27 86v19h-56v178h138v-155q0 -98 -40 -154.5t-134 -92.5z" />
<glyph unicode="&#x201e;" horiz-adv-x="855" d="M136 -223l-25 52q63 31 89.5 66t26.5 87v18h-56v177h138v-154q0 -97 -39.5 -154t-133.5 -92zM512 -223l-25 52q63 31 90 66t27 87v18h-56v177h137v-154q0 -65 -17 -111t-55 -78.5t-101 -56.5z" />
<glyph unicode="&#x2022;" horiz-adv-x="981" d="M491 476q-107 0 -183 76.5t-76 184.5q0 106 78 181.5t181 75.5q66 0 125.5 -34t96.5 -95t37 -132q0 -106 -76.5 -181.5t-182.5 -75.5z" />
<glyph unicode="&#x2026;" horiz-adv-x="1419" d="M171 0v173h134v-173h-134zM644 0v173h133v-173h-133zM1116 0v173h134v-173h-134z" />
<glyph unicode="&#x202f;" horiz-adv-x="375" />
<glyph unicode="&#x2039;" horiz-adv-x="648" d="M441 88l-335 436v17l335 436l77 -50l-286 -393l286 -396z" />
<glyph unicode="&#x203a;" horiz-adv-x="648" d="M209 88l-77 50l286 392l-286 397l77 50l334 -436v-17z" />
<glyph unicode="&#x205f;" horiz-adv-x="469" />
<glyph unicode="&#x20ac;" horiz-adv-x="1503" d="M895 -26q-143 0 -263.5 68t-202.5 189.5t-118 280.5h-188v100h174q-6 57 -6 119q0 72 10 138h-178v100h196q29 112 82.5 207t125 164t162.5 108t190 39q89 0 165 -21.5t137 -62.5t108.5 -91.5t91.5 -117.5l-84 -56q-44 65 -85.5 109.5t-92 78t-110.5 49.5t-134 16 q-103 0 -194 -54t-155.5 -149t-99.5 -219h593v-100h-612q-10 -63 -10 -138q0 -59 6 -119h616v-100h-597q32 -131 100 -230t166 -155t213 -56q87 0 162.5 35t131.5 91.5t111 141.5l79 -52q-45 -70 -92.5 -123t-107.5 -97.5t-133.5 -68.5t-156.5 -24z" />
<glyph unicode="&#x2122;" horiz-adv-x="1441" d="M265 819v572h-211v72h496v-72h-211v-572h-74zM696 819v644h77l251 -383l250 383h75v-644h-73v514l-248 -372h-11l-248 372v-514h-73z" />
<glyph unicode="&#x25fc;" horiz-adv-x="1064" d="M0 1065h1065v-1065h-1065v1065z" />
</font>
</defs>
</svg>
